<?xml version="1.0" encoding="UTF-8"?>
<svg version="1.1" xmlns="http://www.w3.org/2000/svg" width="141" height="109">
<path d="M0 0 C3.35401886 1.78583367 5.21055718 2.35035416 8.9375 1.5 C9.659375 1.27441406 10.38125 1.04882812 11.125 0.81640625 C14.03857837 -0.0847486 16.92812455 -0.5741999 19.9375 -1.0625 C20.93523437 -1.23007813 21.93296875 -1.39765625 22.9609375 -1.5703125 C25.5625 -1.9375 25.5625 -1.9375 28.5625 -1.9375 C28.5625 -0.2875 28.5625 1.3625 28.5625 3.0625 C23.2412385 4.14568169 17.92763131 5.215374 12.5625 6.0625 C14.57539681 9.71553495 16.57430525 13.13705558 19.125 16.4375 C26.81105964 26.98513876 26.12521516 40.70852632 24.5625 53.0625 C22.33271536 64.90342531 16.87465821 74.05545867 7.3125 81.4375 C-2.57982932 88.14230098 -13.61772266 91.81831291 -25.4375 93.0625 C-22.4675 93.7225 -19.4975 94.3825 -16.4375 95.0625 C-16.4375 95.3925 -16.4375 95.7225 -16.4375 96.0625 C-26.9975 96.0625 -37.5575 96.0625 -48.4375 96.0625 C-48.4375 95.7325 -48.4375 95.4025 -48.4375 95.0625 C-43.9825 94.0725 -43.9825 94.0725 -39.4375 93.0625 C-40.15292969 92.95292969 -40.86835937 92.84335938 -41.60546875 92.73046875 C-42.60191406 92.57191406 -43.59835938 92.41335937 -44.625 92.25 C-45.72585937 92.07597656 -46.82671875 91.90195313 -47.9609375 91.72265625 C-51.4375 91.0625 -51.4375 91.0625 -54.6015625 90.12109375 C-62.69104606 87.7223511 -68.01856318 88.67975652 -75.85546875 91.1171875 C-82.77124346 92.94228835 -88.74301914 92.11288927 -95.125 89 C-96.7646875 88.0409375 -96.7646875 88.0409375 -98.4375 87.0625 C-98.4375 86.4025 -98.4375 85.7425 -98.4375 85.0625 C-99.0975 85.0625 -99.7575 85.0625 -100.4375 85.0625 C-100.8125 82.375 -100.8125 82.375 -100.4375 79.0625 C-95.82831699 74.34856283 -92.21354525 72.95167012 -85.8125 72.6875 C-79.42670742 72.69614113 -73.67152488 74.46728469 -67.63232422 76.37158203 C-66.88869629 76.60087402 -66.14506836 76.83016602 -65.37890625 77.06640625 C-64.38419312 77.38847046 -64.38419312 77.38847046 -63.36938477 77.71704102 C-60.12774176 78.29671053 -58.03186227 77.45141727 -55.32421875 75.6796875 C-38.978744 62.73105208 -28.05376229 45.00557348 -18.625 26.5625 C-15.85918041 21.36275916 -12.34236344 17.40780051 -8.1953125 13.25390625 C-6.02035871 11.01068051 -6.02035871 11.01068051 -6.4375 7.0625 C-15.17539137 2.53752054 -22.52164222 -0.44170711 -32.4375 -0.9375 C-33.18 -0.97875 -33.9225 -1.02 -34.6875 -1.0625 C-45.54476015 -1.37270743 -54.29110304 0.53955179 -62.4375 8.0625 C-69.64307081 16.26884453 -71.92611426 23.61534401 -71.6875 34.3828125 C-71.16712122 39.96062257 -69.55997622 43.74359044 -65.9375 48 C-61.74505349 51.45876837 -57.6736823 51.44408414 -52.4375 51.0625 C-50.06795713 50.66989458 -50.06795713 50.66989458 -48.4375 49.0625 C-45.760743 44.26279779 -45.08452046 41.36166986 -46.4375 36.0625 C-46.77083333 34.0625 -47.10416667 32.0625 -47.4375 30.0625 C-41.10671899 26.04488897 -41.10671899 26.04488897 -38.0625 26.125 C-36.4375 27.0625 -36.4375 27.0625 -35.4375 30.0625 C-34.96080947 37.12417131 -34.67365332 43.78043207 -39.4375 49.4375 C-41.4375 51.0625 -41.4375 51.0625 -43.4375 51.0625 C-43.7675 52.0525 -44.0975 53.0425 -44.4375 54.0625 C-45.4275 54.0625 -46.4175 54.0625 -47.4375 54.0625 C-47.4375 54.7225 -47.4375 55.3825 -47.4375 56.0625 C-55.76075354 59.76172379 -63.65993138 60.4697064 -72.328125 57.2421875 C-77.77303508 54.19707112 -81.63833469 48.97768028 -83.4375 43.0625 C-83.6535984 40.44967391 -83.77126809 37.98388516 -83.75 35.375 C-83.74508545 34.66601562 -83.7401709 33.95703125 -83.73510742 33.2265625 C-83.49202739 22.27674179 -79.71943173 13.68323496 -72.5 5.5 C-53.45303474 -12.63403882 -21.81492104 -12.16023164 0 0 Z M-0.109375 15.71484375 C-4.80204906 20.87502105 -8.23709861 25.90023645 -11.4375 32.0625 C-15.76029903 39.72258948 -20.35314575 47.20380588 -25.0612793 54.63110352 C-27.47924387 58.45171845 -27.47924387 58.45171845 -29.54296875 62.46875 C-30.4375 64.0625 -30.4375 64.0625 -33.4375 65.0625 C-33.4375 65.7225 -33.4375 66.3825 -33.4375 67.0625 C-34.30568359 67.45308594 -34.30568359 67.45308594 -35.19140625 67.8515625 C-37.58945442 69.14442325 -39.35968697 70.60975075 -41.375 72.4375 C-43.68660517 74.51578427 -45.97183156 76.47438058 -48.4375 78.375 C-49.0975 78.931875 -49.7575 79.48875 -50.4375 80.0625 C-50.4375 80.7225 -50.4375 81.3825 -50.4375 82.0625 C-34.93070506 87.57911763 -17.45220733 87.94231224 -2.125 81.5 C4.18517585 77.93692657 9.93360315 71.64601236 12.5625 64.875 C15.91970536 51.90294119 15.8247959 36.26883478 9.77734375 24.10546875 C7.66193014 20.54803686 5.30877124 17.16367398 2.5625 14.0625 C1.28927181 13.94534332 1.28927181 13.94534332 -0.109375 15.71484375 Z M-91.4375 82.0625 C-86.20136155 85.31739687 -82.65873259 86.38993329 -76.4375 86.0625 C-74.08380193 85.18185073 -74.08380193 85.18185073 -72.4375 84.0625 C-78.0886492 80.40587405 -86.30106972 75.57437754 -91.4375 82.0625 Z " fill="#F5CAE2" transform="translate(112.4375,12.9375)"/>
<path d="M0 0 C1.2077558 3.62326739 0.54311128 4.64146369 -1 8 C-1.66 8 -2.32 8 -3 8 C-3.33 10.31 -3.66 12.62 -4 15 C-3.34 15 -2.68 15 -2 15 C-2 14.34 -2 13.68 -2 13 C-0.02 12.34 1.96 11.68 4 11 C-0.85660326 29.4550924 -16.23843346 44.91452023 -30.78125 56.1484375 C-33.07073849 57.8079899 -33.07073849 57.8079899 -34 60 C-33.13117187 60.13277344 -32.26234375 60.26554687 -31.3671875 60.40234375 C-30.21476562 60.57894531 -29.06234375 60.75554687 -27.875 60.9375 C-26.73804688 61.11152344 -25.60109375 61.28554687 -24.4296875 61.46484375 C-22.24402613 61.80588658 -20.06117849 62.165882 -17.8828125 62.55078125 C-6.7737454 64.28186894 6.24420985 62.87847644 16.1875 57.37109375 C20.95928746 53.76140108 24.7016206 48.94756911 28 44 C28 46.31 28 48.62 28 51 C28.66 51.33 29.32 51.66 30 52 C30 51.01 30 50.02 30 49 C30.66 49 31.32 49 32 49 C32.268125 48.030625 32.53625 47.06125 32.8125 46.0625 C33.4003125 44.5465625 33.4003125 44.5465625 34 43 C34.99 42.67 35.98 42.34 37 42 C33.09126297 52.71144283 25.03312235 59.61800111 14.9375 64.47265625 C7.05034445 67.85427419 -0.47370768 70.10249555 -9 71 C-6.03 71.66 -3.06 72.32 0 73 C0 73.33 0 73.66 0 74 C-10.56 74 -21.12 74 -32 74 C-32 73.67 -32 73.34 -32 73 C-27.545 72.01 -27.545 72.01 -23 71 C-23.71542969 70.89042969 -24.43085937 70.78085938 -25.16796875 70.66796875 C-26.16441406 70.50941406 -27.16085938 70.35085937 -28.1875 70.1875 C-29.28835937 70.01347656 -30.38921875 69.83945313 -31.5234375 69.66015625 C-35 69 -35 69 -38.1640625 68.05859375 C-46.25354606 65.6598511 -51.58106318 66.61725652 -59.41796875 69.0546875 C-66.33374346 70.87978835 -72.30551914 70.05038927 -78.6875 66.9375 C-80.3271875 65.9784375 -80.3271875 65.9784375 -82 65 C-82 64.34 -82 63.68 -82 63 C-82.66 63 -83.32 63 -84 63 C-84.375 60.3125 -84.375 60.3125 -84 57 C-79.39081699 52.28606283 -75.77604525 50.88917012 -69.375 50.625 C-62.98920742 50.63364113 -57.23402488 52.40478469 -51.19482422 54.30908203 C-50.45119629 54.53837402 -49.70756836 54.76766602 -48.94140625 55.00390625 C-48.27826416 55.21861572 -47.61512207 55.4333252 -46.93188477 55.65454102 C-43.69024176 56.23421053 -41.59436227 55.38891727 -38.88671875 53.6171875 C-26.80731128 44.04806542 -19.0957799 33.03177504 -11 20 C-10.47277344 19.15308594 -9.94554688 18.30617188 -9.40234375 17.43359375 C-5.93833132 11.77245835 -2.87569884 5.98043565 0 0 Z M-75 60 C-69.76386155 63.25489687 -66.22123259 64.32743329 -60 64 C-57.64630193 63.11935073 -57.64630193 63.11935073 -56 62 C-61.6511492 58.34337405 -69.86356972 53.51187754 -75 60 Z " fill="#F3BDD8" transform="translate(96,35)"/>
<path d="M0 0 C0.66 0.66 1.32 1.32 2 2 C1.62662572 6.33114168 1.05835468 10.6057116 0.421875 14.90625 C-0.72108236 22.45339431 -0.72108236 22.45339431 1.5078125 29.48046875 C3.57455501 31.32324867 5.57480736 32.6724348 8 34 C8.99 34.639375 9.98 35.27875 11 35.9375 C15.56056052 37.55269852 19.55751893 37.59411702 24.3125 36.4375 C27.10226893 34.06103017 27.90983394 31.44262966 29 28 C28.83557723 24.93008319 28.83557723 24.93008319 28 22 C27.66666667 20 27.33333333 18 27 16 C33.33078101 11.98238897 33.33078101 11.98238897 36.375 12.0625 C38 13 38 13 39 16 C39.47669053 23.06167131 39.76384668 29.71793207 35 35.375 C33 37 33 37 31 37 C30.67 37.99 30.34 38.98 30 40 C29.01 40 28.02 40 27 40 C27 40.66 27 41.32 27 42 C18.67674646 45.69922379 10.77756862 46.4072064 2.109375 43.1796875 C-3.32596076 40.13992565 -7.22006653 34.91342825 -9 29 C-9.18923071 26.30902795 -9.27992405 23.74818374 -9.25 21.0625 C-9.25773437 20.37220703 -9.26546875 19.68191406 -9.2734375 18.97070312 C-9.25693451 14.61803934 -8.73503304 11.00157269 -7 7 C-6.34 6.67 -5.68 6.34 -5 6 C-4.690625 5.360625 -4.38125 4.72125 -4.0625 4.0625 C-3 2 -3 2 0 0 Z " fill="#FDF2F8" transform="translate(38,27)"/>
<path d="M0 0 C1.9375 0.3125 1.9375 0.3125 4 1 C4.33 1.99 4.66 2.98 5 4 C5.66 4.33 6.32 4.66 7 5 C7.33 5.99 7.66 6.98 8 8 C8.66 8 9.32 8 10 8 C10 8.66 10 9.32 10 10 C10.99 10 11.98 10 13 10 C13.48720213 11.35129647 13.96428184 12.70624316 14.4375 14.0625 C14.70433594 14.81660156 14.97117188 15.57070313 15.24609375 16.34765625 C16.95510972 22.36020467 17.13692129 28.07681478 16.75 34.25 C16.68437866 35.35782837 16.68437866 35.35782837 16.61743164 36.48803711 C16.18251683 42.56823881 14.98320281 48.2250132 13 54 C11.02 54.495 11.02 54.495 9 55 C8.7834375 55.928125 8.7834375 55.928125 8.5625 56.875 C8 59 8 59 7 61 C6.34 61 5.68 61 5 61 C5 61.99 5 62.98 5 64 C4.01 63.67 3.02 63.34 2 63 C2.09611572 62.45287354 2.19223145 61.90574707 2.29125977 61.34204102 C5.21167998 44.27745018 6.50525724 29.42896338 0 13 C-1.85415652 8.04315946 -2.20073845 5.01279315 0 0 Z " fill="#FDF6FA" transform="translate(121,23)"/>
<path d="M0 0 C1.24608032 0.01293091 1.24608032 0.01293091 2.51733398 0.02612305 C4.81640625 0.30078125 4.81640625 0.30078125 8.81640625 2.30078125 C-1.57859375 2.79578125 -1.57859375 2.79578125 -12.18359375 3.30078125 C-7.42873309 3.83766429 -7.42873309 3.83766429 -2.67089844 4.34692383 C1.41377185 4.84954262 3.67784232 5.72267516 6.81640625 8.30078125 C6.20756592 8.26001465 5.59872559 8.21924805 4.97143555 8.17724609 C-15.5670937 6.2390372 -15.5670937 6.2390372 -33.88671875 14.1796875 C-40.86615309 20.62498146 -44.63108769 27.51723465 -45.39453125 36.890625 C-45.63606461 43.51421304 -44.44509739 49.09510757 -42.18359375 55.30078125 C-45.30885021 53.80439911 -47.31928736 52.24570388 -49.18359375 49.30078125 C-49.59784607 43.85715564 -48.91488046 38.69735692 -48.18359375 33.30078125 C-47.99299793 31.46776718 -47.80475744 29.63450288 -47.62109375 27.80078125 C-47.47671875 26.64578125 -47.33234375 25.49078125 -47.18359375 24.30078125 C-49.25812935 24.15171005 -49.25812935 24.15171005 -51.18359375 25.30078125 C-52.31709909 27.31747952 -52.31709909 27.31747952 -53.18359375 29.30078125 C-53.84359375 29.30078125 -54.50359375 29.30078125 -55.18359375 29.30078125 C-52.58810895 20.21658446 -47.07956095 13.21791159 -39.00390625 8.40625 C-25.955297 1.4178735 -14.66348264 -0.15221166 0 0 Z " fill="#FCE9F3" transform="translate(86.18359375,4.69921875)"/>
<path d="M0 0 C0 4.95737438 -2.9409 8.24896072 -6 12 C-16.77256113 22.23393308 -30.17832083 27.83751536 -45 29 C-40.545 29.99 -40.545 29.99 -36 31 C-36 31.33 -36 31.66 -36 32 C-46.56 32 -57.12 32 -68 32 C-68 31.67 -68 31.34 -68 31 C-65.03 30.34 -62.06 29.68 -59 29 C-59.83144531 28.87882812 -60.66289063 28.75765625 -61.51953125 28.6328125 C-62.60621094 28.46523437 -63.69289063 28.29765625 -64.8125 28.125 C-65.89144531 27.96257812 -66.97039062 27.80015625 -68.08203125 27.6328125 C-71 27 -71 27 -74 25 C-73.32839844 25.0721875 -72.65679687 25.144375 -71.96484375 25.21875 C-60.65449801 26.2695176 -49.34821776 26.09453212 -38 26 C-37.67 25.34 -37.34 24.68 -37 24 C-37.64026123 23.98018066 -38.28052246 23.96036133 -38.94018555 23.93994141 C-41.8563528 23.84436399 -44.77183572 23.73481786 -47.6875 23.625 C-48.69490234 23.5940625 -49.70230469 23.563125 -50.74023438 23.53125 C-51.71669922 23.49257812 -52.69316406 23.45390625 -53.69921875 23.4140625 C-54.59471436 23.3826416 -55.49020996 23.3512207 -56.4128418 23.31884766 C-59.21592507 22.97338887 -61.43264531 22.15318532 -64 21 C-64 20.67 -64 20.34 -64 20 C-63.18917969 20.0721875 -62.37835938 20.144375 -61.54296875 20.21875 C-38.75234658 22.23577358 -38.75234658 22.23577358 -18 14 C-14.23249296 10.29304218 -10.93111201 6.39666802 -8 2 C-8 4.31 -8 6.62 -8 9 C-7.01 9.495 -7.01 9.495 -6 10 C-6 9.01 -6 8.02 -6 7 C-5.34 7 -4.68 7 -4 7 C-3.71125 6.030625 -3.4225 5.06125 -3.125 4.0625 C-2 1 -2 1 0 0 Z " fill="#EC7CB4" transform="translate(132,77)"/>
<path d="M0 0 C9.08626286 -0.48484011 9.08626286 -0.48484011 13.0625 1.625 C17.3585505 3.63591726 20.60806592 2.35661964 25 1 C25 1.99 25 2.98 25 4 C26.49853516 4.41572266 26.49853516 4.41572266 28.02734375 4.83984375 C29.33077791 5.20555549 30.63416069 5.57145038 31.9375 5.9375 C32.59685547 6.11990234 33.25621094 6.30230469 33.93554688 6.49023438 C38.88671875 7.88671875 38.88671875 7.88671875 40 9 C41.63256758 9.15714654 43.27135338 9.25085414 44.91015625 9.31640625 C45.89951172 9.35830078 46.88886719 9.40019531 47.90820312 9.44335938 C48.94912109 9.48267578 49.99003906 9.52199219 51.0625 9.5625 C52.10728516 9.60568359 53.15207031 9.64886719 54.22851562 9.69335938 C56.81886884 9.79981225 59.40932186 9.9018276 62 10 C62 10.99 62 11.98 62 13 C59.98759435 15.01240565 56.08694484 14.16975334 53.39160156 14.18969727 C52.35487305 14.18897217 51.31814453 14.18824707 50.25 14.1875 C49.20553711 14.18741943 48.16107422 14.18733887 47.08496094 14.18725586 C38.53835363 14.12427667 30.1735404 13.72451347 22 11 C22 10.34 22 9.68 22 9 C19.03 8.67 16.06 8.34 13 8 C13 7.34 13 6.68 13 6 C11.7315625 5.5978125 11.7315625 5.5978125 10.4375 5.1875 C6.86145933 3.9521405 3.46139092 2.523012 0 1 C0 0.67 0 0.34 0 0 Z " fill="#FEF1FA" transform="translate(33,90)"/>
<path d="M0 0 C7.34618439 0.48974563 13.75631194 3.53977559 20.08203125 7.20703125 C22.47446161 8.19616234 23.52968981 7.94243543 26 7.25 C29.77606037 6.28403107 33.52932961 5.51749699 37.375 4.875 C38.87160156 4.62363281 38.87160156 4.62363281 40.3984375 4.3671875 C43 4 43 4 46 4 C46 5.65 46 7.3 46 9 C40.6787385 10.08318169 35.36513131 11.152874 30 12 C30.86625 13.5159375 30.86625 13.5159375 31.75 15.0625 C34.875 20.53125 34.875 20.53125 38 26 C37.34 26 36.68 26 36 26 C36 25.34 36 24.68 36 24 C35.01 24.33 34.02 24.66 33 25 C33 23.68 33 22.36 33 21 C32.01 20.67 31.02 20.34 30 20 C29.67 19.01 29.34 18.02 29 17 C28.4225 17.144375 27.845 17.28875 27.25 17.4375 C26.5075 17.623125 25.765 17.80875 25 18 C24.071875 18.2475 24.071875 18.2475 23.125 18.5 C20.43568818 19.13277925 17.72763851 19.56605751 15 20 C15.66 18.02 16.32 16.04 17 14 C16.34 14 15.68 14 15 14 C15 11.36 15 8.72 15 6 C12.36 5.67 9.72 5.34 7 5 C7 4.34 7 3.68 7 3 C4.69 2.34 2.38 1.68 0 1 C0 0.67 0 0.34 0 0 Z " fill="#FAEFF5" transform="translate(95,7)"/>
<path d="M0 0 C0.66 0.66 1.32 1.32 2 2 C1.82694858 4.00739644 1.63588376 6.0143521 1.37109375 8.01171875 C0.89877807 11.81510291 0.54936971 15.61701294 0.25 19.4375 C0.18127686 20.14793457 0.11255371 20.85836914 0.04174805 21.59033203 C-0.16216978 23.84376756 -0.16216978 23.84376756 0 27 C0.99 27.66 1.98 28.32 3 29 C2.88637738 30.4800841 2.75877092 31.95910074 2.625 33.4375 C2.55539063 34.26121094 2.48578125 35.08492187 2.4140625 35.93359375 C2.20910156 36.95646484 2.20910156 36.95646484 2 38 C1.01 38.495 1.01 38.495 0 39 C-0.33 38.34 -0.66 37.68 -1 37 C-1.99 36.67 -2.98 36.34 -4 36 C-4.33 34.35 -4.66 32.7 -5 31 C-5.66 31 -6.32 31 -7 31 C-7 23.08 -7 15.16 -7 7 C-6.34 6.67 -5.68 6.34 -5 6 C-4.5359375 5.0409375 -4.5359375 5.0409375 -4.0625 4.0625 C-3 2 -3 2 0 0 Z " fill="#FCF7FA" transform="translate(38,27)"/>
<path d="M0 0 C0.96019043 -0.00153076 1.92038086 -0.00306152 2.90966797 -0.00463867 C7.61687705 0.07004582 10.036181 0.2055905 14.375 2.375 C3.98 2.87 3.98 2.87 -6.625 3.375 C-1.87013934 3.91188304 -1.87013934 3.91188304 2.88769531 4.42114258 C6.9723656 4.92376137 9.23643607 5.79689391 12.375 8.375 C11.76615967 8.3342334 11.15731934 8.2934668 10.5300293 8.25146484 C-11.49839401 6.60500061 -11.49839401 6.60500061 -30.625 16.375 C-31.285 16.705 -31.945 17.035 -32.625 17.375 C-32.24505832 14.62042282 -31.8176367 13.55479426 -29.75 11.625 C-27.625 10.375 -27.625 10.375 -24.625 10.375 C-24.625 9.385 -24.625 8.395 -24.625 7.375 C-26.275 7.375 -27.925 7.375 -29.625 7.375 C-21.31391132 0.43583744 -10.34523065 0.00933532 0 0 Z " fill="#F3B5D3" transform="translate(80.625,4.625)"/>
<path d="M0 0 C1.625 0.9375 1.625 0.9375 2.625 3.9375 C3.07674604 10.62964477 3.30165898 17.11370146 -0.6875 22.8125 C-2.96381372 24.33004248 -4.69222562 24.01627641 -7.375 23.9375 C-7.21451172 22.58205078 -7.21451172 22.58205078 -7.05078125 21.19921875 C-6.93089844 20.01972656 -6.81101562 18.84023438 -6.6875 17.625 C-6.55988281 16.45324219 -6.43226562 15.28148437 -6.30078125 14.07421875 C-6.03665925 10.95699709 -6.03665925 10.95699709 -7.85546875 9.26953125 C-8.35691406 8.82996094 -8.85835938 8.39039063 -9.375 7.9375 C-9.375 6.6175 -9.375 5.2975 -9.375 3.9375 C-3.04421899 -0.08011103 -3.04421899 -0.08011103 0 0 Z " fill="#F3B9D4" transform="translate(74.375,39.0625)"/>
<path d="M0 0 C1.5 1.0625 1.5 1.0625 3 3 C3.45463466 7.81912736 2.75135352 11.5121566 1 16 C2.32 16.33 3.64 16.66 5 17 C4.34 17 3.68 17 3 17 C2.67 17.99 2.34 18.98 2 20 C1.01 20 0.02 20 -1 20 C-1 20.66 -1 21.32 -1 22 C-8.61993579 25.38663813 -15.83977349 26.1760604 -24 24 C-24 23.67 -24 23.34 -24 23 C-20.04 23 -16.08 23 -12 23 C-12.85467041 20.73702265 -12.85467041 20.73702265 -15.5 20 C-18 19 -18 19 -19 17 C-19.99 17 -20.98 17 -22 17 C-21.67 15.68 -21.34 14.36 -21 13 C-20.01 13.66 -19.02 14.32 -18 15 C-13.19884036 17.74630227 -9.08086566 17.74939975 -3.6875 16.4375 C-0.98982018 14.13947645 0.22815066 11.38174668 1 8 C0.9512115 5.20441909 0.53338948 2.7639273 0 0 Z " fill="#ECA6C2" transform="translate(66,47)"/>
<path d="M0 0 C1.2077558 3.62326739 0.54311128 4.64146369 -1 8 C-1.66 8 -2.32 8 -3 8 C-3.33 10.31 -3.66 12.62 -4 15 C-3.34 15 -2.68 15 -2 15 C-2 14.34 -2 13.68 -2 13 C-0.02 12.34 1.96 11.68 4 11 C2.44966581 16.89126992 -0.54911639 22.02060001 -4 27 C-4.66 27.33 -5.32 27.66 -6 28 C-6 27.01 -6 26.02 -6 25 C-5.34 25 -4.68 25 -4 25 C-4.33 23.35 -4.66 21.7 -5 20 C-7.01432266 20.50256112 -7.01432266 20.50256112 -9 22 C-9.28875 23.155 -9.5775 24.31 -9.875 25.5 C-10.24625 26.655 -10.6175 27.81 -11 29 C-14.125 30.4375 -14.125 30.4375 -17 31 C-15.7926104 27.74285597 -14.47313009 25.05696571 -12.4375 22.25 C-7.61984312 15.23271814 -3.90066177 7.54994755 0 0 Z " fill="#F4BCD6" transform="translate(96,35)"/>
<path d="M0 0 C0.33 0.99 0.66 1.98 1 3 C2.65 3 4.3 3 6 3 C4.58214152 6.42958438 2.96809658 8.02393304 -0.0625 10.125 C-3.04627522 12.11074647 -3.04627522 12.11074647 -5 15 C-2.03 15.495 -2.03 15.495 1 16 C-3.00200378 17.60080151 -6.04556236 16.29279692 -10 15 C-10 14.01 -10 13.02 -10 12 C-11.19625 12.391875 -12.3925 12.78375 -13.625 13.1875 C-17.15952231 14.09943191 -17.89323585 14.04194306 -21.5 12.625 C-22.7375 11.820625 -22.7375 11.820625 -24 11 C-24 10.67 -24 10.34 -24 10 C-23.32195313 10.165 -22.64390625 10.33 -21.9453125 10.5 C-17.37379589 11.31046278 -14.29320398 11.72986307 -10.1484375 9.390625 C-7.63619921 7.36008431 -5.29205244 5.27494757 -3 3 C-2.4121875 2.41734375 -1.824375 1.8346875 -1.21875 1.234375 C-0.8165625 0.82703125 -0.414375 0.4196875 0 0 Z " fill="#F7C2E0" transform="translate(67,80)"/>
<path d="M0 0 C3.85402129 -0.08770383 7.70778291 -0.14062735 11.5625 -0.1875 C12.64853516 -0.21263672 13.73457031 -0.23777344 14.85351562 -0.26367188 C21.04846255 -0.32016075 25.53039208 0.01015694 31 3 C31 3.66 31 4.32 31 5 C33.64 5.33 36.28 5.66 39 6 C40.125 9.75 40.125 9.75 39 12 C38.01 11.67 37.02 11.34 36 11 C35.505 10.01 35.505 10.01 35 9 C32.00052568 8.03790446 28.99773942 7.24187622 25.9375 6.5 C24 6 24 6 21.359375 5.03125 C16.43691233 3.52016844 11.46722918 3.12792252 6.36328125 2.5625 C3 2 3 2 0 0 Z " fill="#FEEDF8" transform="translate(71,7)"/>
<path d="M0 0 C1.14988403 0.1071936 1.14988403 0.1071936 2.32299805 0.21655273 C10.83853832 0.94872166 19.26901185 1.12086329 27.8125 1.0625 C29.72772461 1.05573242 29.72772461 1.05573242 31.68164062 1.04882812 C34.78781211 1.03719452 37.89387908 1.02085075 41 1 C36.89235608 3.14409985 33.60293063 3.53970694 29 4 C33.455 4.99 33.455 4.99 38 6 C38 6.33 38 6.66 38 7 C27.44 7 16.88 7 6 7 C6 6.67 6 6.34 6 6 C8.97 5.34 11.94 4.68 15 4 C13.75283203 3.81824219 13.75283203 3.81824219 12.48046875 3.6328125 C10.85044922 3.38144531 10.85044922 3.38144531 9.1875 3.125 C8.10855469 2.96257812 7.02960938 2.80015625 5.91796875 2.6328125 C3 2 3 2 0 0 Z " fill="#E188B4" transform="translate(58,102)"/>
<path d="M0 0 C0 1.65 0 3.3 0 5 C-5.3212615 6.08318169 -10.63486869 7.152874 -16 8 C-16.33 8.99 -16.66 9.98 -17 11 C-17.66 10.67 -18.32 10.34 -19 10 C-19 9.01 -19 8.02 -19 7 C-20.65 7 -22.3 7 -24 7 C-24 6.01 -24 5.02 -24 4 C-6.85714286 0 -6.85714286 0 0 0 Z " fill="#F6BADF" transform="translate(141,11)"/>
<path d="M0 0 C0.98484375 0.00902344 1.9696875 0.01804687 2.984375 0.02734375 C4.10585938 0.04474609 4.10585938 0.04474609 5.25 0.0625 C5.25 0.3925 5.25 0.7225 5.25 1.0625 C4.29287109 1.13597656 4.29287109 1.13597656 3.31640625 1.2109375 C2.49011719 1.28570312 1.66382812 1.36046875 0.8125 1.4375 C-0.42306641 1.54191406 -0.42306641 1.54191406 -1.68359375 1.6484375 C-2.70646484 1.85339844 -2.70646484 1.85339844 -3.75 2.0625 C-4.08 2.7225 -4.41 3.3825 -4.75 4.0625 C-3.615625 4.18625 -2.48125 4.31 -1.3125 4.4375 C-0.136875 4.64375 1.03875 4.85 2.25 5.0625 C2.58 5.7225 2.91 6.3825 3.25 7.0625 C2.13625 7.02125 1.0225 6.98 -0.125 6.9375 C-3.79366025 6.65128141 -3.79366025 6.65128141 -5.75 9.0625 C-4.43 10.0525 -3.11 11.0425 -1.75 12.0625 C-4.72 11.5675 -4.72 11.5675 -7.75 11.0625 C-8.08 9.4125 -8.41 7.7625 -8.75 6.0625 C-9.74 6.0625 -10.73 6.0625 -11.75 6.0625 C-11.48343428 8.99693402 -11.48343428 8.99693402 -10.75 12.0625 C-9.76 12.7225 -8.77 13.3825 -7.75 14.0625 C-7.75 14.7225 -7.75 15.3825 -7.75 16.0625 C-9.73 15.4025 -11.71 14.7425 -13.75 14.0625 C-13.75 13.4025 -13.75 12.7425 -13.75 12.0625 C-14.41 12.0625 -15.07 12.0625 -15.75 12.0625 C-16.125 9.375 -16.125 9.375 -15.75 6.0625 C-10.62964048 0.82576867 -7.0702008 -0.08416906 0 0 Z " fill="#F4AED6" transform="translate(27.75,85.9375)"/>
<path d="M0 0 C0 0.33 0 0.66 0 1 C-2.31 1 -4.62 1 -7 1 C-7 1.66 -7 2.32 -7 3 C-1.39 3 4.22 3 10 3 C10 3.33 10 3.66 10 4 C8.9378125 4.09796875 7.875625 4.1959375 6.78125 4.296875 C-4.17571493 5.33947963 -4.17571493 5.33947963 -14 10 C-15.00353516 10.67869141 -15.00353516 10.67869141 -16.02734375 11.37109375 C-17.70918814 12.54671963 -19.35840141 13.76880106 -21 15 C-20.44369726 12.25254567 -20.2332666 11.21771549 -18.125 9.25 C-16 8 -16 8 -13 8 C-13 7.01 -13 6.02 -13 5 C-14.65 5 -16.3 5 -18 5 C-13.31239654 0.72001423 -6.19188151 -2.19711925 0 0 Z " fill="#E890B9" transform="translate(69,7)"/>
<path d="M0 0 C1.32 0 2.64 0 4 0 C3.67 0.66 3.34 1.32 3 2 C2.34 1.67 1.68 1.34 1 1 C1 2.65 1 4.3 1 6 C0.34 6 -0.32 6 -1 6 C-1 7.32 -1 8.64 -1 10 C-1.66 10 -2.32 10 -3 10 C-3 10.66 -3 11.32 -3 12 C-3.66 12 -4.32 12 -5 12 C-5 13.65 -5 15.3 -5 17 C-6.98 17.66 -8.96 18.32 -11 19 C-11 19.66 -11 20.32 -11 21 C-11.99 21.33 -12.98 21.66 -14 22 C-13.71848913 20.68528432 -13.42446661 19.37324233 -13.125 18.0625 C-12.96257812 17.33160156 -12.80015625 16.60070312 -12.6328125 15.84765625 C-12 14 -12 14 -10 13 C-9.67 12.01 -9.34 11.02 -9 10 C-8.34 10 -7.68 10 -7 10 C-6.731875 9.401875 -6.46375 8.80375 -6.1875 8.1875 C-5.00150961 6.00278087 -3.77943518 4.70529205 -2 3 C-1.34 2.01 -0.68 1.02 0 0 Z " fill="#FBF4F9" transform="translate(105,29)"/>
<path d="M0 0 C1.32 0 2.64 0 4 0 C5.14229879 3.42689636 4.90861076 5.61102218 4.5625 9.1875 C4.46066406 10.27417969 4.35882813 11.36085938 4.25390625 12.48046875 C4.12822266 13.72763672 4.12822266 13.72763672 4 15 C3.34 15 2.68 15 2 15 C1.67 16.65 1.34 18.3 1 20 C-0.32 20 -1.64 20 -3 20 C-2.69463301 16.85343097 -2.37951468 13.70791518 -2.0625 10.5625 C-1.97548828 9.66466797 -1.88847656 8.76683594 -1.79882812 7.84179688 C-1.71181641 6.98779297 -1.62480469 6.13378906 -1.53515625 5.25390625 C-1.456604 4.46314697 -1.37805176 3.6723877 -1.29711914 2.85766602 C-1 1 -1 1 0 0 Z " fill="#FCFAFB" transform="translate(70,43)"/>
<path d="M0 0 C0.99 0.33 1.98 0.66 3 1 C4.0859375 3.23046875 4.0859375 3.23046875 5 6 C5.28101562 6.84175781 5.56203125 7.68351562 5.8515625 8.55078125 C9.14311448 20.30394917 9.62592396 32.54533114 5 44 C4.34 44 3.68 44 3 44 C3.15597656 43.18660156 3.31195313 42.37320313 3.47265625 41.53515625 C5.94098794 27.00305776 5.18309862 13.86177537 0 0 Z " fill="#F4A4C7" transform="translate(121,35)"/>
<path d="M0 0 C0.69480469 0.0721875 1.38960938 0.144375 2.10546875 0.21875 C9.37357442 0.88199919 16.57911494 1.10968725 23.875 1.125 C25.21147583 1.13176758 25.21147583 1.13176758 26.57495117 1.13867188 C31.49028401 1.12761479 36.15432804 0.83181835 41 0 C41 0.66 41 1.32 41 2 C40.01 2 39.02 2 38 2 C38 2.66 38 3.32 38 4 C34.36576791 6.32590854 31.22911669 6.16265833 27 6 C27 5.34 27 4.68 27 4 C26.35973877 3.98018066 25.71947754 3.96036133 25.05981445 3.93994141 C22.1436472 3.84436399 19.22816428 3.73481786 16.3125 3.625 C15.30509766 3.5940625 14.29769531 3.563125 13.25976562 3.53125 C12.28330078 3.49257812 11.30683594 3.45390625 10.30078125 3.4140625 C9.40528564 3.3826416 8.50979004 3.3512207 7.5871582 3.31884766 C4.78407493 2.97338887 2.56735469 2.15318532 0 1 C0 0.67 0 0.34 0 0 Z " fill="#E697BC" transform="translate(68,97)"/>
<path d="M0 0 C0.33 0.66 0.66 1.32 1 2 C0.34 2 -0.32 2 -1 2 C-0.67 3.98 -0.34 5.96 0 8 C-1.98 6.35 -3.96 4.7 -6 3 C-10.4836174 7.74203916 -14.02069129 12.37222875 -16.95703125 18.21484375 C-18 20 -18 20 -20 21 C-20 19.35 -20 17.7 -20 16 C-19.34 16 -18.68 16 -18 16 C-18 15.34 -18 14.68 -18 14 C-17.34 14 -16.68 14 -16 14 C-16 12.68 -16 11.36 -16 10 C-15.34 10 -14.68 10 -14 10 C-14 8.35 -14 6.7 -14 5 C-13.34 4.67 -12.68 4.34 -12 4 C-12 3.34 -12 2.68 -12 2 C-7.8794254 0.00214565 -4.54805635 -0.17835515 0 0 Z " fill="#EDB3CA" transform="translate(120,25)"/>
<path d="M0 0 C2.0625 0.4375 2.0625 0.4375 4 1 C4 2.32 4 3.64 4 5 C6.31 5.66 8.62 6.32 11 7 C11 7.66 11 8.32 11 9 C14.3 9.33 17.6 9.66 21 10 C21 10.33 21 10.66 21 11 C18.9174133 11.19561869 16.83388144 11.38119313 14.75 11.5625 C13.00976562 11.71912109 13.00976562 11.71912109 11.234375 11.87890625 C8.48128523 11.98198087 6.580018 11.86213473 4 11 C4 10.34 4 9.68 4 9 C3.360625 8.79375 2.72125 8.5875 2.0625 8.375 C0 7 0 7 -0.8125 3.9375 C-0.874375 2.968125 -0.93625 1.99875 -1 1 C-0.67 0.67 -0.34 0.34 0 0 Z " fill="#FCEDF2" transform="translate(16,91)"/>
<path d="M0 0 C0.33 0 0.66 0 1 0 C1 2.31 1 4.62 1 7 C0.34 7 -0.32 7 -1 7 C-1 7.99 -1 8.98 -1 10 C-1.99 10 -2.98 10 -4 10 C-4 10.99 -4 11.98 -4 13 C-5.423125 13.433125 -5.423125 13.433125 -6.875 13.875 C-10.05211578 14.76825109 -10.05211578 14.76825109 -12 17 C-11.67 15.35 -11.34 13.7 -11 12 C-9.35 11.67 -7.7 11.34 -6 11 C-5.814375 9.329375 -5.814375 9.329375 -5.625 7.625 C-5 4 -5 4 -3 2 C-2.01 2 -1.02 2 0 2 C0 1.34 0 0.68 0 0 Z M-14 17 C-13.34 17.33 -12.68 17.66 -12 18 C-12.33 18.66 -12.66 19.32 -13 20 C-12.01 20.33 -11.02 20.66 -10 21 C-11.65 21.33 -13.3 21.66 -15 22 C-14.67 20.35 -14.34 18.7 -14 17 Z " fill="#FCF2F9" transform="translate(91,53)"/>
<path d="M0 0 C0.33 0 0.66 0 1 0 C1.33 6.93 1.66 13.86 2 21 C2.66 21.33 3.32 21.66 4 22 C4 23.65 4 25.3 4 27 C4.598125 27.12375 5.19625 27.2475 5.8125 27.375 C8 28 8 28 11 30 C10.67 31.32 10.34 32.64 10 34 C8.71560633 32.99628143 7.44808958 31.97095632 6.1875 30.9375 C5.47980469 30.36902344 4.77210937 29.80054687 4.04296875 29.21484375 C-0.74331918 24.02588532 -1.45175636 18.52720396 -1.25 11.8125 C-1.24484375 11.11447266 -1.2396875 10.41644531 -1.234375 9.69726562 C-1.1832382 6.33821724 -1.02914434 3.21192629 0 0 Z " fill="#F5A8D1" transform="translate(30,36)"/>
<path d="M0 0 C1.5 1.0625 1.5 1.0625 3 3 C3.45463466 7.81912736 2.75135352 11.5121566 1 16 C2.32 16.33 3.64 16.66 5 17 C4.34 17 3.68 17 3 17 C2.67 17.99 2.34 18.98 2 20 C1.01 20 0.02 20 -1 20 C-1 20.66 -1 21.32 -1 22 C-2.32 22.33 -3.64 22.66 -5 23 C-4.67 21.68 -4.34 20.36 -4 19 C-7.3 19 -10.6 19 -14 19 C-14 18.67 -14 18.34 -14 18 C-12.98679688 17.85304688 -12.98679688 17.85304688 -11.953125 17.703125 C-6.40806172 16.78652598 -6.40806172 16.78652598 -1.4375 14.3125 C1.01805897 10.36225296 1.23809225 6.59861941 0.5625 2.0625 C0.2840625 1.0415625 0.2840625 1.0415625 0 0 Z " fill="#E188BB" transform="translate(66,47)"/>
<path d="M0 0 C0 0.99 0 1.98 0 3 C-4.22222222 6 -4.22222222 6 -7 6 C-7.2475 7.0725 -7.495 8.145 -7.75 9.25 C-8.99883146 12.99649437 -10.02488658 14.52073882 -13 17 C-12.34 14.69 -11.68 12.38 -11 10 C-10.34 10 -9.68 10 -9 10 C-9 8.68 -9 7.36 -9 6 C-10.65 6 -12.3 6 -14 6 C-8.96308234 0.83053187 -7.24243188 -0.13411911 0 0 Z " fill="#F8BED3" transform="translate(56,12)"/>
<path d="M0 0 C0.66 0 1.32 0 2 0 C1.7834375 0.89138672 1.7834375 0.89138672 1.5625 1.80078125 C-0.7703265 12.21749959 -0.67134275 20.92566068 3 31 C-0.12560072 29.50345302 -2.12895346 27.94021599 -4 25 C-4.82344993 16.36765416 -3.28452837 7.99711256 0 0 Z " fill="#E69ABB" transform="translate(41,29)"/>
<path d="M0 0 C0.99 0 1.98 0 3 0 C1.6744419 3.62276315 0.05653045 6.63505348 -2.125 9.8125 C-2.93324219 10.99779297 -2.93324219 10.99779297 -3.7578125 12.20703125 C-4.16773437 12.79871094 -4.57765625 13.39039062 -5 14 C-5.33 12.68 -5.66 11.36 -6 10 C-6.99 10 -7.98 10 -9 10 C-8.4375 7.625 -8.4375 7.625 -7 5 C-3.375 3.6875 -3.375 3.6875 0 3 C0 2.01 0 1.02 0 0 Z " fill="#EEBBD4" transform="translate(87,63)"/>
<path d="M0 0 C4.25488569 8.20585098 5.27361694 15.54247 4.6875 24.6875 C4.63432617 25.80608398 4.63432617 25.80608398 4.58007812 26.94726562 C4.33895762 30.98153553 3.84380309 33.31239383 2 37 C2 27.43 2 17.86 2 8 C1.34 8 0.68 8 0 8 C0 5.36 0 2.72 0 0 Z " fill="#E89DBD" transform="translate(133,33)"/>
<path d="M0 0 C-1.55033419 5.89126992 -4.54911639 11.02060001 -8 16 C-8.66 16.33 -9.32 16.66 -10 17 C-10 16.01 -10 15.02 -10 14 C-9.34 14 -8.68 14 -8 14 C-8.04125 12.7625 -8.0825 11.525 -8.125 10.25 C-8.11349314 6.99355798 -8.05079997 4.66603996 -6 2 C-3.83022576 0.6438911 -2.5637264 0 0 0 Z " fill="#ECB3C8" transform="translate(100,46)"/>
<path d="M0 0 C0 3.60875251 -0.91270898 4.6997725 -2.9375 7.625 C-3.75541016 8.81996094 -3.75541016 8.81996094 -4.58984375 10.0390625 C-6 12 -6 12 -7 13 C-8.66617115 13.04063832 -10.33388095 13.042721 -12 13 C-12.36630156 9.06225823 -12.30233203 7.43460229 -10 4.125 C-9.34 3.42375 -8.68 2.7225 -8 2 C-8 4.31 -8 6.62 -8 9 C-7.34 9.33 -6.68 9.66 -6 10 C-6 9.01 -6 8.02 -6 7 C-5.34 7 -4.68 7 -4 7 C-3.71125 6.030625 -3.4225 5.06125 -3.125 4.0625 C-2 1 -2 1 0 0 Z " fill="#EC98B7" transform="translate(132,77)"/>
<path d="M0 0 C1.04449911 3.13349732 0.93423645 3.98968256 0 7 C-1.32 7.33 -2.64 7.66 -4 8 C-4.144375 8.61875 -4.28875 9.2375 -4.4375 9.875 C-5 12 -5 12 -6 14 C-6.66 14 -7.32 14 -8 14 C-8 14.99 -8 15.98 -8 17 C-8.99 16.67 -9.98 16.34 -11 16 C-10.67 13.69 -10.34 11.38 -10 9 C-9.01 9.33 -8.02 9.66 -7 10 C-6.34 8.68 -5.68 7.36 -5 6 C-4.34 6 -3.68 6 -3 6 C-3 5.34 -3 4.68 -3 4 C-2.34 4 -1.68 4 -1 4 C-0.67 2.68 -0.34 1.36 0 0 Z " fill="#FDE5F3" transform="translate(134,70)"/>
<path d="M0 0 C1.87109375 0.2890625 1.87109375 0.2890625 4 1 C4.67160156 1.21398437 5.34320313 1.42796875 6.03515625 1.6484375 C6.70417969 1.88820313 7.37320313 2.12796875 8.0625 2.375 C9.06990234 2.72691406 9.06990234 2.72691406 10.09765625 3.0859375 C12.24536446 4.11789586 13.52597861 5.12948552 15 7 C14.6875 9.6875 14.6875 9.6875 14 12 C13.01 12 12.02 12 11 12 C11 10.68 11 9.36 11 8 C6.72886302 5.81673892 2.49797113 3.68673918 -2 2 C-1.34 1.34 -0.68 0.68 0 0 Z " fill="#EB9FC3" transform="translate(95,12)"/>
<path d="M0 0 C0 0.66 0 1.32 0 2 C2.64 2.33 5.28 2.66 8 3 C9.125 6.75 9.125 6.75 8 9 C7.01 8.67 6.02 8.34 5 8 C4.67 7.34 4.34 6.68 4 6 C2.88625 5.690625 1.7725 5.38125 0.625 5.0625 C-2.69993306 4.08795066 -3.95212691 3.6501887 -6 1 C-4 0 -4 0 0 0 Z " fill="#F9F9F8" transform="translate(102,10)"/>
<path d="M0 0 C0.33 0.66 0.66 1.32 1 2 C3.32156597 2.40729228 5.6568787 2.74438677 8 3 C8 3.99 8 4.98 8 6 C3.89239989 7.36920004 0.82753654 6.75251505 -3.125 5.125 C-5.07419044 3.95548574 -6.47552551 2.67692194 -8 1 C-2.25 0 -2.25 0 0 0 Z " fill="#FDF9FB" transform="translate(56,94)"/>
<path d="M0 0 C-7.12735533 4.75157022 -15.48837841 5.42517626 -23.8203125 4.51953125 C-26 4 -26 4 -28 2 C-27.41734375 2.02320312 -26.8346875 2.04640625 -26.234375 2.0703125 C-20.25416905 2.20195225 -14.72868386 1.57963578 -8.859375 0.4375 C-5.86382579 -0.0208354 -3.02563321 -0.07161262 0 0 Z " fill="#F389BC" transform="translate(48,100)"/>
<path d="M0 0 C0 0.99 0 1.98 0 3 C1.32 3.33 2.64 3.66 4 4 C-1.75 7 -1.75 7 -4 7 C-4 6.34 -4 5.68 -4 5 C-3.01 5 -2.02 5 -1 5 C-1 4.34 -1 3.68 -1 3 C-2.423125 3.495 -2.423125 3.495 -3.875 4 C-8.55447256 5.3644458 -13.16823759 5.17499341 -18 5 C-18 4.67 -18 4.34 -18 4 C-17.01257813 3.79503906 -16.02515625 3.59007813 -15.0078125 3.37890625 C-13.72648437 3.10949219 -12.44515625 2.84007813 -11.125 2.5625 C-9.84882812 2.29566406 -8.57265625 2.02882813 -7.2578125 1.75390625 C-4.66939438 1.15490781 -2.59881008 0 0 0 Z " fill="#E379B3" transform="translate(110,94)"/>
<path d="M0 0 C4.29 0 8.58 0 13 0 C13 0.99 13 1.98 13 3 C12 4 12 4 10.15234375 4.09765625 C8.1015625 4.06510417 6.05078125 4.03255208 4 4 C4 3.01 4 2.02 4 1 C2.68 0.67 1.36 0.34 0 0 Z " fill="#FCE4F4" transform="translate(82,100)"/>
<path d="M0 0 C0.33 0.66 0.66 1.32 1 2 C4.3 2 7.6 2 11 2 C10.67 2.99 10.34 3.98 10 5 C10.99 5.33 11.98 5.66 13 6 C7.39 5.67 1.78 5.34 -4 5 C-4 4.34 -4 3.68 -4 3 C-2.68 2.67 -1.36 2.34 0 2 C0 1.34 0 0.68 0 0 Z " fill="#F6C3DC" transform="translate(45,96)"/>
<path d="M0 0 C5.28 0 10.56 0 16 0 C15.01 0.495 15.01 0.495 14 1 C14 1.66 14 2.32 14 3 C10.59598052 4.13732426 8.22543336 3.83989957 4.75 3.0625 C3.85796875 2.86785156 2.9659375 2.67320313 2.046875 2.47265625 C1.37140625 2.31667969 0.6959375 2.16070312 0 2 C0 1.34 0 0.68 0 0 Z " fill="#EDA2CD" transform="translate(27,98)"/>
<path d="M0 0 C0.99 0.33 1.98 0.66 3 1 C3.103125 1.94875 3.20625 2.8975 3.3125 3.875 C3.68539295 7.29107501 3.68539295 7.29107501 7 9 C7 9.66 7 10.32 7 11 C5.02 10.34 3.04 9.68 1 9 C1 8.34 1 7.68 1 7 C0.34 7 -0.32 7 -1 7 C-1.04254356 5.00045254 -1.04080783 2.99958364 -1 1 C-0.67 0.67 -0.34 0.34 0 0 Z " fill="#F0A3D0" transform="translate(13,91)"/>
<path d="M0 0 C0.515625 0.2475 1.03125 0.495 1.5625 0.75 C1.2325 1.41 0.9025 2.07 0.5625 2.75 C-2 3.375 -2 3.375 -4.4375 3.75 C-4.7675 6.06 -5.0975 8.37 -5.4375 10.75 C-7.4375 9.5 -7.4375 9.5 -9.4375 7.75 C-9.4375 6.43 -9.4375 5.11 -9.4375 3.75 C-3.0375 -0.31153846 -3.0375 -0.31153846 0 0 Z " fill="#F3A3D0" transform="translate(74.4375,39.25)"/>
<path d="M0 0 C7.65106346 -0.21285803 14.62476682 -0.17629832 22 2 C22.66 2.66 23.32 3.32 24 4 C21.8537974 3.85970581 19.70803782 3.71261836 17.5625 3.5625 C16.36753906 3.48128906 15.17257813 3.40007813 13.94140625 3.31640625 C11 3 11 3 10 2 C8.31816052 1.76712992 6.6287584 1.58735834 4.9375 1.4375 C4.01839844 1.35371094 3.09929687 1.26992187 2.15234375 1.18359375 C1.08693359 1.09271484 1.08693359 1.09271484 0 1 C0 0.67 0 0.34 0 0 Z " fill="#F39ED0" transform="translate(69,9)"/>
<path d="M0 0 C1.32 0 2.64 0 4 0 C4 0.66 4 1.32 4 2 C7.3 2.33 10.6 2.66 14 3 C14 3.33 14 3.66 14 4 C11.9174133 4.19561869 9.83388144 4.38119313 7.75 4.5625 C6.00976562 4.71912109 6.00976562 4.71912109 4.234375 4.87890625 C1.48128523 4.98198087 -0.419982 4.86213473 -3 4 C-3 3.34 -3 2.68 -3 2 C-1.35 2 0.3 2 2 2 C1.34 1.34 0.68 0.68 0 0 Z " fill="#FEDDF4" transform="translate(23,98)"/>
<path d="M0 0 C0.33 1.32 0.66 2.64 1 4 C0.34 4 -0.32 4 -1 4 C-1.0825 4.78375 -1.165 5.5675 -1.25 6.375 C-2 9 -2 9 -4 10.125 C-4.66 10.41375 -5.32 10.7025 -6 11 C-6.33 11.99 -6.66 12.98 -7 14 C-7.99 13.67 -8.98 13.34 -10 13 C-9.36191406 12.22914062 -8.72382812 11.45828125 -8.06640625 10.6640625 C-6.82697266 9.15972656 -6.82697266 9.15972656 -5.5625 7.625 C-4.73878906 6.62726563 -3.91507812 5.62953125 -3.06640625 4.6015625 C-1.01584166 2.20344705 -1.01584166 2.20344705 0 0 Z " fill="#ED9EC6" transform="translate(78,66)"/>
<path d="M0 0 C6.69034366 0.44602291 12.02812122 3.07345542 18 6 C13.74938644 7.41687119 11.28148375 6.19320039 7 5 C7 4.34 7 3.68 7 3 C4.69 2.34 2.38 1.68 0 1 C0 0.67 0 0.34 0 0 Z " fill="#EFA1C5" transform="translate(95,7)"/>
<path d="M0 0 C3 1 3 1 4.125 3.1875 C6.17982597 9.79229775 6.10978372 16.14461651 6 23 C5.67 23 5.34 23 5 23 C4.89042969 22.09378906 4.78085938 21.18757813 4.66796875 20.25390625 C3.74299978 13.1474373 2.54257537 6.70315325 0 0 Z " fill="#ED7CAE" transform="translate(121,35)"/>
<path d="M0 0 C1.2077558 3.62326739 0.54311128 4.64146369 -1 8 C-1.66 8 -2.32 8 -3 8 C-3.12375 8.94875 -3.2475 9.8975 -3.375 10.875 C-4 14 -4 14 -6 16 C-6 11.54348712 -5.03477741 9.64999003 -3 5.75 C-2.443125 4.67234375 -1.88625 3.5946875 -1.3125 2.484375 C-0.879375 1.66453125 -0.44625 0.8446875 0 0 Z " fill="#EF86AE" transform="translate(96,35)"/>
<path d="M0 0 C3.68006822 3.38168431 5.9785845 6.42521756 8 11 C7.34 11 6.68 11 6 11 C6 10.34 6 9.68 6 9 C5.01 9.33 4.02 9.66 3 10 C3 8.68 3 7.36 3 6 C2.01 5.67 1.02 5.34 0 5 C0 3.35 0 1.7 0 0 Z " fill="#E9AECC" transform="translate(125,22)"/>
<path d="M0 0 C0.98484375 0.00902344 1.9696875 0.01804687 2.984375 0.02734375 C4.10585938 0.04474609 4.10585938 0.04474609 5.25 0.0625 C5.25 0.3925 5.25 0.7225 5.25 1.0625 C0.63 1.3925 -3.99 1.7225 -8.75 2.0625 C-9.08 3.0525 -9.41 4.0425 -9.75 5.0625 C-11.07 4.7325 -12.39 4.4025 -13.75 4.0625 C-9.21239141 0.33517866 -5.79921987 -0.06903833 0 0 Z " fill="#F47CC3" transform="translate(27.75,85.9375)"/>
<path d="M0 0 C-0.33 1.65 -0.66 3.3 -1 5 C-2.32 5.33 -3.64 5.66 -5 6 C-4.67 4.68 -4.34 3.36 -4 2 C-7.3 2 -10.6 2 -14 2 C-14 1.67 -14 1.34 -14 1 C-12.04175306 0.83232136 -10.08339945 0.66588795 -8.125 0.5 C-6.48917969 0.36078125 -6.48917969 0.36078125 -4.8203125 0.21875 C-3.21670436 0.09437042 -1.60842449 0 0 0 Z " fill="#E29EC5" transform="translate(66,64)"/>
<path d="M0 0 C0 0.99 0 1.98 0 3 C-1.2065625 3.4640625 -1.2065625 3.4640625 -2.4375 3.9375 C-4.89080405 4.76335345 -4.89080405 4.76335345 -6 6 C-6.99 6.495 -6.99 6.495 -8 7 C-8.33 5.35 -8.66 3.7 -9 2 C-5.62902617 0.50178941 -3.79557881 0 0 0 Z " fill="#F6E8F2" transform="translate(128,28)"/>
<path d="M0 0 C0 0.66 0 1.32 0 2 C-0.99 2 -1.98 2 -3 2 C-3 2.66 -3 3.32 -3 4 C-5.64 4 -8.28 4 -11 4 C-10 2 -10 2 -7.1875 0.875 C-4 0 -4 0 0 0 Z " fill="#FDDCF3" transform="translate(109,97)"/>
<path d="M0 0 C2.89933109 5.59156709 4.25166799 9.58246635 4 16 C1.8480563 12.77208445 1.79913557 11.71599191 2 8 C1.34 8 0.68 8 0 8 C0 5.36 0 2.72 0 0 Z " fill="#EC95B5" transform="translate(133,33)"/>
<path d="M0 0 C2.31 0 4.62 0 7 0 C7 0.33 7 0.66 7 1 C8.65 1.33 10.3 1.66 12 2 C10 4 10 4 6.375 4.125 C5.26125 4.08375 4.1475 4.0425 3 4 C3 3.34 3 2.68 3 2 C2.01 1.34 1.02 0.68 0 0 Z " fill="#F4B5D5" transform="translate(92,99)"/>
<path d="M0 0 C3.37462715 0.54723683 5.08235 1.0549 8 3 C7.67 4.32 7.34 5.64 7 7 C5.83040013 6.02433888 4.66438823 5.044375 3.5 4.0625 C2.8503125 3.51722656 2.200625 2.97195312 1.53125 2.41015625 C1.0259375 1.94480469 0.520625 1.47945313 0 1 C0 0.67 0 0.34 0 0 Z " fill="#EDACD1" transform="translate(33,63)"/>
<path d="M0 0 C0.75925781 0.08378906 1.51851562 0.16757813 2.30078125 0.25390625 C3.29464844 0.35574219 4.28851563 0.45757812 5.3125 0.5625 C6.29863281 0.66691406 7.28476562 0.77132812 8.30078125 0.87890625 C11.09930347 1.16602527 11.09930347 1.16602527 14 0 C14 0.66 14 1.32 14 2 C6.86153846 4.33846154 6.86153846 4.33846154 2.5 2.625 C1.675 2.08875 0.85 1.5525 0 1 C0 0.67 0 0.34 0 0 Z " fill="#EF8BC1" transform="translate(43,90)"/>
<path d="M0 0 C0.99 0.33 1.98 0.66 3 1 C3 1.66 3 2.32 3 3 C2.34 3 1.68 3 1 3 C1 3.99 1 4.98 1 6 C-0.65 6 -2.3 6 -4 6 C-4 5.01 -4 4.02 -4 3 C-3.01 2.67 -2.02 2.34 -1 2 C-0.67 1.34 -0.34 0.68 0 0 Z " fill="#FEECF9" transform="translate(72,77)"/>
<path d="M0 0 C1.04449911 3.13349732 0.93423645 3.98968256 0 7 C-0.639375 7.103125 -1.27875 7.20625 -1.9375 7.3125 C-2.618125 7.539375 -3.29875 7.76625 -4 8 C-4.33 8.99 -4.66 9.98 -5 11 C-5.33 9.68 -5.66 8.36 -6 7 C-5.01 6.67 -4.02 6.34 -3 6 C-3 5.34 -3 4.68 -3 4 C-2.34 4 -1.68 4 -1 4 C-0.67 2.68 -0.34 1.36 0 0 Z " fill="#F3B9D2" transform="translate(134,70)"/>
<path d="M0 0 C0.66 0 1.32 0 2 0 C1.46939601 4.51013391 -0.30886117 7.38378219 -3 11 C-3.33 11 -3.66 11 -4 11 C-4 9.35 -4 7.7 -4 6 C-3.34 6 -2.68 6 -2 6 C-2 5.34 -2 4.68 -2 4 C-1.34 4 -0.68 4 0 4 C0 2.68 0 1.36 0 0 Z " fill="#E996B8" transform="translate(104,35)"/>
<path d="M0 0 C0.99 0.33 1.98 0.66 3 1 C2.01 2.485 2.01 2.485 1 4 C3.97 4.495 3.97 4.495 7 5 C2.99799622 6.60080151 -0.04556236 5.29279692 -4 4 C-2.68 2.68 -1.36 1.36 0 0 Z " fill="#DD91B6" transform="translate(61,91)"/>
<path d="M0 0 C0.33 0.99 0.66 1.98 1 3 C4.00847418 4.22520264 4.00847418 4.22520264 7 5 C7 5.33 7 5.66 7 6 C4.36 6 1.72 6 -1 6 C-1 5.01 -1 4.02 -1 3 C-1.99 3.33 -2.98 3.66 -4 4 C-4.66 3.34 -5.32 2.68 -6 2 C-4.02 1.34 -2.04 0.68 0 0 Z " fill="#F9E0ED" transform="translate(57,91)"/>
<path d="M0 0 C0.66 0.99 1.32 1.98 2 3 C1.125 6.1875 1.125 6.1875 0 9 C0.66 9 1.32 9 2 9 C2 9.99 2 10.98 2 12 C0.68 12 -0.64 12 -2 12 C-1.34 8.04 -0.68 4.08 0 0 Z " fill="#FEE7F7" transform="translate(69,51)"/>
<path d="M0 0 C0.268125 0.598125 0.53625 1.19625 0.8125 1.8125 C1.86180044 4.04292693 1.86180044 4.04292693 3.625 5.4375 C5 7 5 7 5.1875 9.6875 C5.125625 10.450625 5.06375 11.21375 5 12 C4.34 12 3.68 12 3 12 C-0.42857143 4.71428571 -0.42857143 4.71428571 0 0 Z " fill="#F196CE" transform="translate(29,51)"/>
<path d="M0 0 C0 3.23655184 -0.6550847 4.78752639 -2 7.6875 C-2.37125 8.49574219 -2.7425 9.30398437 -3.125 10.13671875 C-3.41375 10.75160156 -3.7025 11.36648437 -4 12 C-4.66 12 -5.32 12 -6 12 C-4.68139111 7.38486888 -2.78644563 3.90102388 0 0 Z " fill="#E682BA" transform="translate(37,22)"/>
<path d="M0 0 C0.99 0 1.98 0 3 0 C3 1.32 3 2.64 3 4 C1.68 4.33 0.36 4.66 -1 5 C-1 5.66 -1 6.32 -1 7 C-1.66 7 -2.32 7 -3 7 C-2.38722388 4.03824877 -1.74627478 2.61941217 0 0 Z " fill="#FAF5F8" transform="translate(44,18)"/>
<path d="M0 0 C0.99 0 1.98 0 3 0 C3 0.66 3 1.32 3 2 C1.35 2.66 -0.3 3.32 -2 4 C-2 4.66 -2 5.32 -2 6 C-3.32 6 -4.64 6 -6 6 C-6 5.01 -6 4.02 -6 3 C-5.195625 2.87625 -4.39125 2.7525 -3.5625 2.625 C-2.716875 2.41875 -1.87125 2.2125 -1 2 C-0.67 1.34 -0.34 0.68 0 0 Z " fill="#FDD1EF" transform="translate(116,91)"/>
<path d="M0 0 C0 0.66 0 1.32 0 2 C-0.99 2 -1.98 2 -3 2 C-3 2.99 -3 3.98 -3 5 C-4.98 5.33 -6.96 5.66 -9 6 C-3.15384615 0 -3.15384615 0 0 0 Z " fill="#E88DC0" transform="translate(51,12)"/>
<path d="M0 0 C3.78903708 0.25260247 5.54186593 2.27849443 8 5 C4.7 4.01 1.4 3.02 -2 2 C-1.34 1.34 -0.68 0.68 0 0 Z " fill="#E298BE" transform="translate(95,12)"/>
<path d="M0 0 C0.66 0.33 1.32 0.66 2 1 C1.67 1.33 1.34 1.66 1 2 C2.65 2.33 4.3 2.66 6 3 C5.401875 3.28875 4.80375 3.5775 4.1875 3.875 C1.80672208 5.04742026 1.80672208 5.04742026 -1 7 C-1.625 4.625 -1.625 4.625 -2 2 C-1.34 1.34 -0.68 0.68 0 0 Z " fill="#F5AFC8" transform="translate(59,87)"/>
<path d="M0 0 C0.66 0.33 1.32 0.66 2 1 C-2.455 4.465 -2.455 4.465 -7 8 C-7.33 7.34 -7.66 6.68 -8 6 C-3.375 1.125 -3.375 1.125 0 0 Z " fill="#D56491" transform="translate(56,14)"/>
<path d="M0 0 C0.99 0 1.98 0 3 0 C1.95125002 2.62187494 1.35068687 3.79371361 -1.125 5.25 C-1.74375 5.4975 -2.3625 5.745 -3 6 C-2.42655063 3.13275314 -2.1385485 2.1385485 0 0 Z " fill="#F9C0DD" transform="translate(41,18)"/>
<path d="M0 0 C0.99 0.33 1.98 0.66 3 1 C3 1.99 3 2.98 3 4 C3.99 4.66 4.98 5.32 6 6 C3.03 5.505 3.03 5.505 0 5 C-0.5625 3.0625 -0.5625 3.0625 -1 1 C-0.67 0.67 -0.34 0.34 0 0 Z " fill="#E984AE" transform="translate(20,92)"/>
<path d="M0 0 C1.98 0 3.96 0 6 0 C5.67 0.99 5.34 1.98 5 3 C3.35 3 1.7 3 0 3 C0 2.01 0 1.02 0 0 Z " fill="#FEE6F5" transform="translate(56,67)"/>
<path d="M0 0 C-0.66 0.66 -1.32 1.32 -2 2 C-3.32 2 -4.64 2 -6 2 C-6.33 2.99 -6.66 3.98 -7 5 C-7.66 4.67 -8.32 4.34 -9 4 C-8.67 3.01 -8.34 2.02 -8 1 C-5.07175348 0.02391783 -3.04386724 -0.08226668 0 0 Z " fill="#E584AD" transform="translate(131,17)"/>
<path d="M0 0 C-4.30769231 3.07692308 -4.30769231 3.07692308 -7.8125 2.6875 C-8.534375 2.460625 -9.25625 2.23375 -10 2 C-9.67 1.34 -9.34 0.68 -9 0 C-5.44307323 -0.85056945 -3.50729422 -1.16909807 0 0 Z " fill="#E28BB6" transform="translate(126,15)"/>
<path d="M0 0 C0.66 0.33 1.32 0.66 2 1 C2.625 4.0625 2.625 4.0625 3 7 C2.01 7 1.02 7 0 7 C-0.38133299 5.0085944 -0.71325582 3.00720923 -1 1 C-0.67 0.67 -0.34 0.34 0 0 Z " fill="#FBF8FB" transform="translate(16,91)"/>
<path d="M0 0 C0 3.10551666 -0.5393715 4.35261084 -2 7 C-3.32 6.67 -4.64 6.34 -6 6 C-4.02 4.02 -2.04 2.04 0 0 Z " fill="#ED94C6" transform="translate(67,80)"/>
<path d="M0 0 C2 3 2 3 2 5 C0.02 5.66 -1.96 6.32 -4 7 C-2.92598892 4.08482708 -2.22189824 2.22189824 0 0 Z " fill="#E699BD" transform="translate(83,59)"/>
<path d="M0 0 C2.31 0 4.62 0 7 0 C7 0.33 7 0.66 7 1 C4.69 1 2.38 1 0 1 C0 0.67 0 0.34 0 0 Z " fill="#C53992" transform="translate(27,108)"/>
<path d="M0 0 C1 4 1 4 1 4 Z " fill="#FF6AD8" transform="translate(140,49)"/>
</svg>
